<svg width="452" height="250" viewBox="0 0 452 250" fill="none" xmlns="http://www.w3.org/2000/svg">
<g filter="url(#filter0_d_2001_18)">
<mask id="path-1-outside-1_2001_18" maskUnits="userSpaceOnUse" x="4.5" y="105.499" width="351" height="95" fill="black">
<rect fill="white" x="4.5" y="105.499" width="351" height="95"/>
<path d="M42.716 199.395C32.22 199.395 23.6013 196.92 16.86 191.971C10.1187 186.936 6.492 179.768 5.98 170.467H32.732C32.988 173.624 33.9267 175.928 35.548 177.379C37.1693 178.83 39.26 179.555 41.82 179.555C44.124 179.555 46.0013 179 47.452 177.891C48.988 176.696 49.756 175.075 49.756 173.027C49.756 170.382 48.5187 168.334 46.044 166.883C43.5693 165.432 39.5587 163.811 34.012 162.019C28.124 160.056 23.3453 158.179 19.676 156.387C16.092 154.51 12.9347 151.822 10.204 148.323C7.55867 144.739 6.236 140.088 6.236 134.371C6.236 128.568 7.68667 123.619 10.588 119.523C13.4893 115.342 17.5 112.184 22.62 110.051C27.74 107.918 33.5427 106.851 40.028 106.851C50.524 106.851 58.8867 109.326 65.116 114.275C71.4307 119.139 74.8013 126.008 75.228 134.883H47.964C47.8787 132.152 47.0253 130.104 45.404 128.739C43.868 127.374 41.8627 126.691 39.388 126.691C37.5107 126.691 35.9747 127.246 34.78 128.355C33.5853 129.464 32.988 131.043 32.988 133.091C32.988 134.798 33.628 136.291 34.908 137.571C36.2733 138.766 37.9373 139.832 39.9 140.771C41.8627 141.624 44.764 142.734 48.604 144.099C54.3213 146.062 59.0147 148.024 62.684 149.987C66.4387 151.864 69.6387 154.552 72.284 158.051C75.0147 161.464 76.38 165.816 76.38 171.107C76.38 176.483 75.0147 181.304 72.284 185.571C69.6387 189.838 65.756 193.208 60.636 195.683C55.6013 198.158 49.628 199.395 42.716 199.395ZM171.627 198.499H146.539L113.131 148.067V198.499H88.043V108.259H113.131L146.539 159.331V108.259H171.627V198.499ZM243.006 183.779H211.006L206.142 198.499H179.774L212.67 108.259H241.598L274.366 198.499H247.87L243.006 183.779ZM236.734 164.579L227.006 135.395L217.406 164.579H236.734ZM353.839 138.339C353.839 143.8 352.559 148.792 349.999 153.315C347.524 157.752 343.727 161.336 338.607 164.067C333.572 166.712 327.386 168.035 320.047 168.035H307.631V198.499H282.543V108.259H320.047C327.3 108.259 333.444 109.539 338.479 112.099C343.599 114.659 347.439 118.2 349.999 122.723C352.559 127.246 353.839 132.451 353.839 138.339ZM317.615 148.067C324.698 148.067 328.239 144.824 328.239 138.339C328.239 131.768 324.698 128.483 317.615 128.483H307.631V148.067H317.615Z"/>
</mask>
<path d="M42.716 199.395C32.22 199.395 23.6013 196.92 16.86 191.971C10.1187 186.936 6.492 179.768 5.98 170.467H32.732C32.988 173.624 33.9267 175.928 35.548 177.379C37.1693 178.83 39.26 179.555 41.82 179.555C44.124 179.555 46.0013 179 47.452 177.891C48.988 176.696 49.756 175.075 49.756 173.027C49.756 170.382 48.5187 168.334 46.044 166.883C43.5693 165.432 39.5587 163.811 34.012 162.019C28.124 160.056 23.3453 158.179 19.676 156.387C16.092 154.51 12.9347 151.822 10.204 148.323C7.55867 144.739 6.236 140.088 6.236 134.371C6.236 128.568 7.68667 123.619 10.588 119.523C13.4893 115.342 17.5 112.184 22.62 110.051C27.74 107.918 33.5427 106.851 40.028 106.851C50.524 106.851 58.8867 109.326 65.116 114.275C71.4307 119.139 74.8013 126.008 75.228 134.883H47.964C47.8787 132.152 47.0253 130.104 45.404 128.739C43.868 127.374 41.8627 126.691 39.388 126.691C37.5107 126.691 35.9747 127.246 34.78 128.355C33.5853 129.464 32.988 131.043 32.988 133.091C32.988 134.798 33.628 136.291 34.908 137.571C36.2733 138.766 37.9373 139.832 39.9 140.771C41.8627 141.624 44.764 142.734 48.604 144.099C54.3213 146.062 59.0147 148.024 62.684 149.987C66.4387 151.864 69.6387 154.552 72.284 158.051C75.0147 161.464 76.38 165.816 76.38 171.107C76.38 176.483 75.0147 181.304 72.284 185.571C69.6387 189.838 65.756 193.208 60.636 195.683C55.6013 198.158 49.628 199.395 42.716 199.395ZM171.627 198.499H146.539L113.131 148.067V198.499H88.043V108.259H113.131L146.539 159.331V108.259H171.627V198.499ZM243.006 183.779H211.006L206.142 198.499H179.774L212.67 108.259H241.598L274.366 198.499H247.87L243.006 183.779ZM236.734 164.579L227.006 135.395L217.406 164.579H236.734ZM353.839 138.339C353.839 143.8 352.559 148.792 349.999 153.315C347.524 157.752 343.727 161.336 338.607 164.067C333.572 166.712 327.386 168.035 320.047 168.035H307.631V198.499H282.543V108.259H320.047C327.3 108.259 333.444 109.539 338.479 112.099C343.599 114.659 347.439 118.2 349.999 122.723C352.559 127.246 353.839 132.451 353.839 138.339ZM317.615 148.067C324.698 148.067 328.239 144.824 328.239 138.339C328.239 131.768 324.698 128.483 317.615 128.483H307.631V148.067H317.615Z" fill="#0052FF"/>
<path d="M16.86 191.971L16.2616 192.772L16.2682 192.777L16.86 191.971ZM5.98 170.467V169.467H4.92344L4.98151 170.522L5.98 170.467ZM32.732 170.467L33.7287 170.386L33.6542 169.467H32.732V170.467ZM35.548 177.379L34.8812 178.124V178.124L35.548 177.379ZM47.452 177.891L48.0595 178.685L48.0659 178.68L47.452 177.891ZM46.044 166.883L46.5497 166.02L46.044 166.883ZM34.012 162.019L33.6958 162.968L33.7046 162.971L34.012 162.019ZM19.676 156.387L19.212 157.273L19.2245 157.279L19.2372 157.286L19.676 156.387ZM10.204 148.323L9.39943 148.917L9.40741 148.928L9.41568 148.938L10.204 148.323ZM10.588 119.523L11.4041 120.101L11.4096 120.093L10.588 119.523ZM22.62 110.051L22.2354 109.128L22.62 110.051ZM65.116 114.275L64.4939 115.058L64.4998 115.063L64.5058 115.067L65.116 114.275ZM75.228 134.883V135.883H76.2772L76.2269 134.835L75.228 134.883ZM47.964 134.883L46.9645 134.914L46.9948 135.883H47.964V134.883ZM45.404 128.739L44.7396 129.486L44.7496 129.495L44.7599 129.504L45.404 128.739ZM34.78 128.355L35.4605 129.088L34.78 128.355ZM34.908 137.571L34.2009 138.278L34.2244 138.302L34.2495 138.324L34.908 137.571ZM39.9 140.771L39.4685 141.673L39.4848 141.681L39.5013 141.688L39.9 140.771ZM48.604 144.099L48.269 145.041L48.2793 145.045L48.604 144.099ZM62.684 149.987L62.2123 150.869L62.2245 150.875L62.2368 150.881L62.684 149.987ZM72.284 158.051L71.4863 158.654L71.4946 158.665L71.5031 158.676L72.284 158.051ZM72.284 185.571L71.4417 185.032L71.4379 185.038L71.4341 185.044L72.284 185.571ZM60.636 195.683L60.2008 194.783L60.1949 194.786L60.636 195.683ZM42.716 199.395V198.395C32.378 198.395 23.982 195.959 17.4518 191.165L16.86 191.971L16.2682 192.777C23.2206 197.881 32.062 200.395 42.716 200.395V199.395ZM16.86 191.971L17.4584 191.17C10.9816 186.333 7.47618 179.453 6.97849 170.412L5.98 170.467L4.98151 170.522C5.50782 180.083 9.25569 187.54 16.2616 192.772L16.86 191.971ZM5.98 170.467V171.467H32.732V170.467V169.467H5.98V170.467ZM32.732 170.467L31.7353 170.548C32.0026 173.845 32.997 176.438 34.8812 178.124L35.548 177.379L36.2148 176.634C34.8564 175.418 33.9734 173.404 33.7287 170.386L32.732 170.467ZM35.548 177.379L34.8812 178.124C36.7175 179.767 39.06 180.555 41.82 180.555V179.555V178.555C39.46 178.555 37.6211 177.892 36.2148 176.634L35.548 177.379ZM41.82 179.555V180.555C44.2853 180.555 46.3931 179.96 48.0595 178.685L47.452 177.891L46.8446 177.097C45.6095 178.041 43.9627 178.555 41.82 178.555V179.555ZM47.452 177.891L48.0659 178.68C49.86 177.285 50.756 175.365 50.756 173.027H49.756H48.756C48.756 174.785 48.116 176.108 46.8381 177.102L47.452 177.891ZM49.756 173.027H50.756C50.756 169.992 49.2992 167.632 46.5497 166.02L46.044 166.883L45.5383 167.746C47.7381 169.035 48.756 170.771 48.756 173.027H49.756ZM46.044 166.883L46.5497 166.02C43.9767 164.512 39.8797 162.864 34.3194 161.067L34.012 162.019L33.7046 162.971C39.2376 164.758 43.162 166.353 45.5383 167.746L46.044 166.883ZM34.012 162.019L34.3282 161.07C28.463 159.115 23.7297 157.254 20.1148 155.488L19.676 156.387L19.2372 157.286C22.961 159.104 27.785 160.997 33.6958 162.968L34.012 162.019ZM19.676 156.387L20.14 155.501C16.6939 153.696 13.644 151.105 10.9923 147.708L10.204 148.323L9.41568 148.938C12.2254 152.538 15.4901 155.323 19.212 157.273L19.676 156.387ZM10.204 148.323L11.0086 147.729C8.52209 144.36 7.236 139.935 7.236 134.371H6.236H5.236C5.236 140.241 6.59524 145.118 9.39943 148.917L10.204 148.323ZM6.236 134.371H7.236C7.236 128.742 8.64033 124.003 11.404 120.101L10.588 119.523L9.77198 118.945C6.733 123.235 5.236 128.395 5.236 134.371H6.236ZM10.588 119.523L11.4096 120.093C14.1922 116.083 18.0445 113.041 23.0046 110.974L22.62 110.051L22.2354 109.128C16.9555 111.328 12.7864 114.601 9.76641 118.953L10.588 119.523ZM22.62 110.051L23.0046 110.974C27.9839 108.899 33.6527 107.851 40.028 107.851V106.851V105.851C33.4327 105.851 27.4961 106.936 22.2354 109.128L22.62 110.051ZM40.028 106.851V107.851C50.3705 107.851 58.4909 110.288 64.4939 115.058L65.116 114.275L65.7381 113.492C59.2825 108.363 50.6775 105.851 40.028 105.851V106.851ZM65.116 114.275L64.5058 115.067C70.5596 119.73 73.8148 126.312 74.2292 134.931L75.228 134.883L76.2269 134.835C75.7879 125.705 72.3017 118.548 65.7262 113.483L65.116 114.275ZM75.228 134.883V133.883H47.964V134.883V135.883H75.228V134.883ZM47.964 134.883L48.9635 134.852C48.872 131.924 47.9456 129.572 46.0481 127.974L45.404 128.739L44.7599 129.504C46.105 130.637 46.8853 132.38 46.9645 134.914L47.964 134.883ZM45.404 128.739L46.0684 127.992C44.3135 126.432 42.0551 125.691 39.388 125.691V126.691V127.691C41.6703 127.691 43.4225 128.316 44.7396 129.486L45.404 128.739ZM39.388 126.691V125.691C37.2993 125.691 35.5072 126.315 34.0996 127.622L34.78 128.355L35.4605 129.088C36.4422 128.176 37.7221 127.691 39.388 127.691V126.691ZM34.78 128.355L34.0996 127.622C32.6514 128.967 31.988 130.841 31.988 133.091H32.988H33.988C33.988 131.245 34.5193 129.962 35.4605 129.088L34.78 128.355ZM32.988 133.091H31.988C31.988 135.08 32.746 136.823 34.2009 138.278L34.908 137.571L35.6151 136.864C34.51 135.759 33.988 134.515 33.988 133.091H32.988ZM34.908 137.571L34.2495 138.324C35.6954 139.589 37.4395 140.703 39.4685 141.673L39.9 140.771L40.3315 139.869C38.4352 138.962 36.8513 137.943 35.5665 136.818L34.908 137.571ZM39.9 140.771L39.5013 141.688C41.4959 142.555 44.423 143.674 48.269 145.041L48.604 144.099L48.939 143.157C45.105 141.794 42.2294 140.693 40.2987 139.854L39.9 140.771ZM48.604 144.099L48.2793 145.045C53.9665 146.997 58.6061 148.94 62.2123 150.869L62.684 149.987L63.1557 149.105C59.4232 147.109 54.6761 145.126 48.9287 143.153L48.604 144.099ZM62.684 149.987L62.2368 150.881C65.8476 152.687 68.9296 155.273 71.4863 158.654L72.284 158.051L73.0817 157.448C70.3478 153.832 67.0298 151.042 63.1312 149.093L62.684 149.987ZM72.284 158.051L71.5031 158.676C74.0639 161.877 75.38 165.994 75.38 171.107H76.38H77.38C77.38 165.639 75.9654 161.052 73.0649 157.426L72.284 158.051ZM76.38 171.107H75.38C75.38 176.304 74.063 180.936 71.4417 185.032L72.284 185.571L73.1263 186.11C75.9664 181.672 77.38 176.662 77.38 171.107H76.38ZM72.284 185.571L71.4341 185.044C68.9016 189.129 65.1733 192.379 60.2008 194.783L60.636 195.683L61.0712 196.583C66.3387 194.037 70.3757 190.547 73.1339 186.098L72.284 185.571ZM60.636 195.683L60.1949 194.786C55.3256 197.179 49.5099 198.395 42.716 198.395V199.395V200.395C49.7462 200.395 55.877 199.136 61.0771 196.58L60.636 195.683ZM171.627 198.499V199.499H172.627V198.499H171.627ZM146.539 198.499L145.705 199.051L146.002 199.499H146.539V198.499ZM113.131 148.067L113.965 147.515L112.131 144.747V148.067H113.131ZM113.131 198.499V199.499H114.131V198.499H113.131ZM88.043 198.499H87.043V199.499H88.043V198.499ZM88.043 108.259V107.259H87.043V108.259H88.043ZM113.131 108.259L113.968 107.712L113.672 107.259H113.131V108.259ZM146.539 159.331L145.702 159.878L147.539 162.687V159.331H146.539ZM146.539 108.259V107.259H145.539V108.259H146.539ZM171.627 108.259H172.627V107.259H171.627V108.259ZM171.627 198.499V197.499H146.539V198.499V199.499H171.627V198.499ZM146.539 198.499L147.373 197.947L113.965 147.515L113.131 148.067L112.297 148.619L145.705 199.051L146.539 198.499ZM113.131 148.067H112.131V198.499H113.131H114.131V148.067H113.131ZM113.131 198.499V197.499H88.043V198.499V199.499H113.131V198.499ZM88.043 198.499H89.043V108.259H88.043H87.043V198.499H88.043ZM88.043 108.259V109.259H113.131V108.259V107.259H88.043V108.259ZM113.131 108.259L112.294 108.806L145.702 159.878L146.539 159.331L147.376 158.784L113.968 107.712L113.131 108.259ZM146.539 159.331H147.539V108.259H146.539H145.539V159.331H146.539ZM146.539 108.259V109.259H171.627V108.259V107.259H146.539V108.259ZM171.627 108.259H170.627V198.499H171.627H172.627V108.259H171.627ZM243.006 183.779L243.956 183.465L243.729 182.779H243.006V183.779ZM211.006 183.779V182.779H210.283L210.056 183.465L211.006 183.779ZM206.142 198.499V199.499H206.865L207.092 198.813L206.142 198.499ZM179.774 198.499L178.834 198.157L178.345 199.499H179.774V198.499ZM212.67 108.259V107.259H211.97L211.73 107.917L212.67 108.259ZM241.598 108.259L242.538 107.918L242.299 107.259H241.598V108.259ZM274.366 198.499V199.499H275.793L275.306 198.158L274.366 198.499ZM247.87 198.499L246.921 198.813L247.147 199.499H247.87V198.499ZM236.734 164.579V165.579H238.121L237.683 164.263L236.734 164.579ZM227.006 135.395L227.955 135.079L227 132.214L226.056 135.083L227.006 135.395ZM217.406 164.579L216.456 164.267L216.024 165.579H217.406V164.579ZM243.006 183.779V182.779H211.006V183.779V184.779H243.006V183.779ZM211.006 183.779L210.056 183.465L205.192 198.185L206.142 198.499L207.092 198.813L211.956 184.093L211.006 183.779ZM206.142 198.499V197.499H179.774V198.499V199.499H206.142V198.499ZM179.774 198.499L180.714 198.842L213.61 108.602L212.67 108.259L211.73 107.917L178.834 198.157L179.774 198.499ZM212.67 108.259V109.259H241.598V108.259V107.259H212.67V108.259ZM241.598 108.259L240.658 108.6L273.426 198.84L274.366 198.499L275.306 198.158L242.538 107.918L241.598 108.259ZM274.366 198.499V197.499H247.87V198.499V199.499H274.366V198.499ZM247.87 198.499L248.82 198.185L243.956 183.465L243.006 183.779L242.057 184.093L246.921 198.813L247.87 198.499ZM236.734 164.579L237.683 164.263L227.955 135.079L227.006 135.395L226.057 135.711L235.785 164.895L236.734 164.579ZM227.006 135.395L226.056 135.083L216.456 164.267L217.406 164.579L218.356 164.891L227.956 135.707L227.006 135.395ZM217.406 164.579V165.579H236.734V164.579V163.579H217.406V164.579ZM349.999 153.315L349.129 152.822L349.126 152.828L349.999 153.315ZM338.607 164.067L339.072 164.952L339.078 164.949L338.607 164.067ZM307.631 168.035V167.035H306.631V168.035H307.631ZM307.631 198.499V199.499H308.631V198.499H307.631ZM282.543 198.499H281.543V199.499H282.543V198.499ZM282.543 108.259V107.259H281.543V108.259H282.543ZM338.479 112.099L338.026 112.99L338.032 112.993L338.479 112.099ZM349.999 122.723L349.129 123.216L349.999 122.723ZM307.631 128.483V127.483H306.631V128.483H307.631ZM307.631 148.067H306.631V149.067H307.631V148.067ZM353.839 138.339H352.839C352.839 143.637 351.599 148.458 349.129 152.822L349.999 153.315L350.869 153.808C353.519 149.127 354.839 143.964 354.839 138.339H353.839ZM349.999 153.315L349.126 152.828C346.757 157.075 343.112 160.531 338.136 163.185L338.607 164.067L339.078 164.949C344.342 162.142 348.291 158.43 350.872 153.802L349.999 153.315ZM338.607 164.067L338.142 163.182C333.286 165.733 327.269 167.035 320.047 167.035V168.035V169.035C327.502 169.035 333.858 167.692 339.072 164.952L338.607 164.067ZM320.047 168.035V167.035H307.631V168.035V169.035H320.047V168.035ZM307.631 168.035H306.631V198.499H307.631H308.631V168.035H307.631ZM307.631 198.499V197.499H282.543V198.499V199.499H307.631V198.499ZM282.543 198.499H283.543V108.259H282.543H281.543V198.499H282.543ZM282.543 108.259V109.259H320.047V108.259V107.259H282.543V108.259ZM320.047 108.259V109.259C327.186 109.259 333.166 110.519 338.026 112.99L338.479 112.099L338.932 111.208C333.723 108.559 327.414 107.259 320.047 107.259V108.259ZM338.479 112.099L338.032 112.993C342.993 115.474 346.677 118.883 349.129 123.216L349.999 122.723L350.869 122.23C348.201 117.517 344.205 113.844 338.926 111.205L338.479 112.099ZM349.999 122.723L349.129 123.216C351.593 127.569 352.839 132.6 352.839 138.339H353.839H354.839C354.839 132.302 353.525 126.922 350.869 122.23L349.999 122.723ZM317.615 148.067V149.067C321.29 149.067 324.232 148.228 326.258 146.373C328.301 144.502 329.239 141.76 329.239 138.339H328.239H327.239C327.239 141.404 326.406 143.525 324.908 144.897C323.392 146.285 321.023 147.067 317.615 147.067V148.067ZM328.239 138.339H329.239C329.239 134.879 328.303 132.107 326.263 130.214C324.237 128.334 321.293 127.483 317.615 127.483V128.483V129.483C321.02 129.483 323.388 130.274 324.903 131.68C326.404 133.073 327.239 135.228 327.239 138.339H328.239ZM317.615 128.483V127.483H307.631V128.483V129.483H317.615V128.483ZM307.631 128.483H306.631V148.067H307.631H308.631V128.483H307.631ZM307.631 148.067V149.067H317.615V148.067V147.067H307.631V148.067Z" fill="white" mask="url(#path-1-outside-1_2001_18)"/>
</g>
<g filter="url(#filter1_d_2001_18)">
<mask id="path-3-outside-2_2001_18" maskUnits="userSpaceOnUse" x="367.048" y="102.224" width="45.9599" height="48.4056" fill="black">
<rect fill="white" x="367.048" y="102.224" width="45.9599" height="48.4056"/>
<path d="M387.302 106.008L411.089 114.377L385.223 143.542L369.526 138.019L387.302 106.008Z"/>
</mask>
<path d="M387.302 106.008L411.089 114.377L385.223 143.542L369.526 138.019L387.302 106.008Z" fill="#0052FF"/>
<path d="M387.302 106.008L387.634 105.065L386.838 104.785L386.428 105.523L387.302 106.008ZM411.089 114.377L411.837 115.041L412.824 113.928L411.421 113.434L411.089 114.377ZM385.223 143.542L384.891 144.485L385.525 144.708L385.971 144.206L385.223 143.542ZM369.526 138.019L368.652 137.534L368.077 138.569L369.194 138.963L369.526 138.019ZM387.302 106.008L386.97 106.952L410.757 115.321L411.089 114.377L411.421 113.434L387.634 105.065L387.302 106.008ZM411.089 114.377L410.341 113.714L384.475 142.878L385.223 143.542L385.971 144.206L411.837 115.041L411.089 114.377ZM385.223 143.542L385.555 142.599L369.858 137.076L369.526 138.019L369.194 138.963L384.891 144.485L385.223 143.542ZM369.526 138.019L370.401 138.505L388.176 106.494L387.302 106.008L386.428 105.523L368.652 137.534L369.526 138.019Z" fill="white" mask="url(#path-3-outside-2_2001_18)"/>
</g>
<defs>
<filter id="filter0_d_2001_18" x="0.923447" y="105.851" width="353.916" height="98.5439" filterUnits="userSpaceOnUse" color-interpolation-filters="sRGB">
<feFlood flood-opacity="0" result="BackgroundImageFix"/>
<feColorMatrix in="SourceAlpha" type="matrix" values="0 0 0 0 0 0 0 0 0 0 0 0 0 0 0 0 0 0 127 0" result="hardAlpha"/>
<feOffset dx="-4" dy="4"/>
<feComposite in2="hardAlpha" operator="out"/>
<feColorMatrix type="matrix" values="0 0 0 0 0.329412 0 0 0 0 0.305882 0 0 0 0 0.305882 0 0 0 0.49 0"/>
<feBlend mode="normal" in2="BackgroundImageFix" result="effect1_dropShadow_2001_18"/>
<feBlend mode="normal" in="SourceGraphic" in2="effect1_dropShadow_2001_18" result="shape"/>
</filter>
<filter id="filter1_d_2001_18" x="364.077" y="104.785" width="48.7471" height="43.9235" filterUnits="userSpaceOnUse" color-interpolation-filters="sRGB">
<feFlood flood-opacity="0" result="BackgroundImageFix"/>
<feColorMatrix in="SourceAlpha" type="matrix" values="0 0 0 0 0 0 0 0 0 0 0 0 0 0 0 0 0 0 127 0" result="hardAlpha"/>
<feOffset dx="-4" dy="4"/>
<feComposite in2="hardAlpha" operator="out"/>
<feColorMatrix type="matrix" values="0 0 0 0 0.329412 0 0 0 0 0.305882 0 0 0 0 0.305882 0 0 0 0.49 0"/>
<feBlend mode="normal" in2="BackgroundImageFix" result="effect1_dropShadow_2001_18"/>
<feBlend mode="normal" in="SourceGraphic" in2="effect1_dropShadow_2001_18" result="shape"/>
</filter>
</defs>
</svg>
